<?xml version="1.0" standalone="no"?>
<!DOCTYPE svg PUBLIC "-//W3C//DTD SVG 20010904//EN"
 "http://www.w3.org/TR/2001/REC-SVG-20010904/DTD/svg10.dtd">
<svg version="1.0" xmlns="http://www.w3.org/2000/svg"
 width="16.000000pt" height="16.000000pt" viewBox="0 0 16.000000 16.000000"
 preserveAspectRatio="xMidYMid meet">
<metadata>
Created by potrace 1.11, written by Peter Selinger 2001-2013
</metadata>
<g transform="translate(0.000000,16.000000) scale(0.020000,-0.020000)"
fill="#000000" stroke="none">
<path d="M305 790 c-2 -4 18 -28 45 -55 l49 -48 45 44 c25 24 46 49 46 54 0
16 -72 18 -81 4 -6 -10 -11 -10 -21 -1 -15 12 -76 13 -83 2z"/>
<path d="M246 771 c-4 -6 -11 -9 -16 -6 -4 3 -13 -1 -18 -8 -9 -10 12 -37 89
-113 l99 -99 102 104 102 103 -30 13 c-33 14 -35 12 -127 -79 l-49 -49 -73 73
c-45 45 -75 68 -79 61z"/>
<path d="M140 710 l-25 -19 120 -123 c66 -68 131 -131 144 -142 l23 -19 139
139 c76 76 139 142 139 145 0 4 -10 14 -23 22 -23 15 -27 12 -141 -101 l-118
-115 -116 116 -117 116 -25 -19z"/>
<path d="M590 538 c-64 -62 -120 -119 -123 -126 -4 -8 42 -61 119 -138 116
-116 127 -124 140 -107 7 10 14 24 14 32 0 8 -43 57 -96 110 l-96 95 101 99
c100 97 101 98 85 122 -9 14 -19 25 -21 25 -3 0 -58 -51 -123 -112z"/>
<path d="M25 555 c-3 -8 -7 -22 -10 -31 -3 -9 15 -34 45 -65 28 -27 50 -52 50
-55 0 -4 -23 -28 -50 -55 -42 -41 -49 -53 -44 -74 3 -14 10 -28 16 -31 9 -6
168 143 168 158 0 10 -155 168 -164 168 -4 0 -9 -7 -11 -15z"/>
<path d="M676 481 l-79 -79 81 -79 c45 -44 85 -77 90 -74 5 3 12 17 15 31 5
21 -3 34 -44 75 l-49 49 50 48 c27 26 50 49 50 52 0 14 -21 56 -27 56 -5 0
-43 -36 -87 -79z"/>
<path d="M0 405 c0 -30 4 -55 8 -55 18 0 54 49 46 61 -14 24 -38 49 -46 49 -5
0 -8 -25 -8 -55z"/>
<path d="M762 427 l-22 -23 30 -29 30 -29 0 52 c0 58 -6 63 -38 29z"/>
<path d="M379 328 c-1 -2 -2 -76 -3 -165 l-1 -163 22 0 c23 0 23 0 23 165 0
158 -1 165 -20 165 -11 0 -20 -1 -21 -2z"/>
</g>
</svg>
